<svg xmlns="http://www.w3.org/2000/svg" width="1390.667" height="1568" version="1.0" viewBox="0 0 1043 1176"><path d="M263.9 121.4 4.5 237.6l-.3 5.4c-.4 7.5 2.3 52.3 5.4 87 15 172.3 47.6 322.3 93.4 429 62.8 146.6 198.1 285.5 370.7 380.5 17 9.4 47.6 24.5 49.6 24.5 2.5 0 44.2-21.3 64.2-32.7 113.5-65.2 209-147.6 278.6-240.3 52.8-70.3 86.2-139.8 114.6-238 23.7-82.5 41.4-178.4 52.7-286 4.3-40.9 8.1-91.7 8.8-117.3l.3-11.9L786 122.9C644.9 59.8 528.1 7.4 526.4 6.6c-3-1.4-5.8-.2-262.5 114.8zM762.7 156l238.8 107-.3 8.7c-.1 4.9-.9 17.8-1.8 28.8-13.3 177.3-46.5 336.6-92 441.8-25.7 59.2-60.3 113.2-107.3 167.2-13.9 15.9-48 50.5-66.1 66.9-57.8 52.5-125.5 99.7-194.7 135.9l-16.2 8.4-15.8-8.2c-43.6-22.5-91.3-53-134.3-85.6-108.8-82.5-189.8-180.8-234.1-284.1C97.8 647 67.5 513.3 51.6 357c-2.8-27.1-6.3-71.6-6.8-85.3l-.3-8.9L283 156C414.2 97.2 522 49.1 522.7 49c.6 0 108.6 48.1 240 107z"/><path d="M297 176.7C172.5 232.4 70.4 278.3 70.2 278.5c-.6.5 1.2 24.6 3.9 54C90.2 509 124.9 659 172.1 756c45.5 93.4 119.9 179.3 221.3 255.5 37.8 28.4 96.7 65.6 125.8 79.6l4.6 2.2 15.4-8.3c85.4-46.1 171.2-112.5 232-179.2 53.7-59 92.3-119.2 119.3-185.8 40.8-100.4 71.8-252.4 83.9-410.5.9-11 1.8-22.5 2.1-25.6l.4-5.5L757.2 180C636.4 125.9 534.3 80.2 530.5 78.4l-7.1-3.2L297 176.7zm-47 47.9v3.7l-2.5-2.7c-3.9-4.2-9.5-2.9-9.5 2.4 0 2.2 1.1 3.8 5.1 7.2 7.8 6.7 9.6 11.6 6.4 17.8-1.8 3.5-7.6 5.6-12.8 4.6-4-.8-4.6-1.8-3.9-6.5l.5-3.5 1.6 3.5c1.3 2.7 2.3 3.5 4.9 3.7 4.1.4 7.2-2 7.2-5.6 0-1.7-1.9-4.3-6.5-8.7-6-5.7-6.5-6.5-6.5-10.4 0-6.3 3.2-9.1 10.5-9.1h5.5v3.6zm37.6-1.4c-.3 1.3-.6 3-.6 3.8 0 1-.5.7-1.6-.8-1.1-1.6-2.5-2.2-5.5-2.2H276v13.2l5.5-.4c5.5-.5 5.5-.4 5.5 2.3 0 1.5-.4 3.1-1 3.4-.5.3-1-.1-1-.9 0-1-.9-1.6-2.2-1.6-1.3 0-3.3-.3-4.5-.6-2.2-.6-2.3-.4-2.3 5.4 0 8.5.4 9.2 5.5 9.2 3.3 0 4.6-.5 5.8-2.3l1.6-2.2v2.2c.2 5-.5 5.3-10.6 5.3-8.8 0-9.4-.1-8.2-1.7 1-1.1 1.5-5.5 1.8-14.5.3-14.1-.2-17.8-2.5-17.8-.8 0-1.2-.5-.9-1 .3-.6 4.9-1 10.2-1 9.4 0 9.5 0 8.9 2.2zm28.9-1.2c.3.5-.1 1-.9 1-1.3 0-1.6 1.3-1.6 6.7v6.7l6-5.9c3.3-3.3 5.9-6.6 5.7-7.5-.3-1.8 6.9-2.8 8.6-1.1.8.8.6 1.1-.7 1.1-1 0-5.2 3.2-9.2 7.2l-7.5 7.2 7.8 7.8c4.3 4.3 9.6 8.7 11.8 9.7l4 2-4.3.1c-5.9 0-7.7-1-15.4-9.3l-6.8-7.2v7.1c0 6.4.2 7.2 2.3 8.2 1.8.9 1.1 1.1-4.2 1.1-6.1.1-6.3 0-4.8-1.7 1.4-1.6 1.7-4.3 1.7-16.6 0-13.9-.1-14.8-2-15.3-1.1-.3-1.7-.9-1.4-1.4.7-1.2 10.1-1.1 10.9.1zm59.5 1.3c8 4.2 11.2 14.4 7.1 23.2-4.5 9.8-15.2 14-24.6 9.6-7.2-3.3-10.5-8.6-10.5-16.6 0-5.5 1.4-9.2 4.8-12.9 5.7-6 15.4-7.4 23.2-3.3zm35-1.3c0 .5-.7 1-1.5 1-1.3 0-1.5 2.3-1.5 15v15l2.7 1.1c3.5 1.3 8.1.2 8.8-2.2.9-2.7 2.9-2.4 2.1.3-.3 1.3-.6 2.9-.6 3.5 0 1-2.8 1.3-10.7 1.3-10.2 0-10.5-.1-9-1.8 1.4-1.6 1.7-4.3 1.7-16.6 0-13.9-.1-14.8-2-15.3-1.1-.3-1.7-.9-1.4-1.4.7-1.2 11.4-1.1 11.4.1zm39.8 4.2c8.5 22.4 10.5 26.8 13 28.7l2.7 2-5.2.1c-4.4 0-5.3-.3-5.3-1.8 0-.9-.8-3.8-1.7-6.5l-1.7-4.7h-10.4l-1.8 5.2c-1.6 4.9-1.6 5.2.2 6.5 1.6 1.1 1 1.3-4.2 1.3h-5.9l2.7-2.3c1.9-1.6 4.1-6.2 7.9-16.7 2.8-8 5.4-15.1 5.6-15.8.9-2.4 2.2-1.2 4.1 4zm38.2-4.3c0 .5-.7 1.1-1.5 1.5-1.1.4-1.5 2.1-1.5 6.6v6h19v-6.5c0-5.1-.3-6.5-1.5-6.5-.8 0-1.5-.5-1.5-1 0-1.2 9.7-1.3 10.4-.1.3.5-.1 1.1-.9 1.5-1.2.4-1.5 3.1-1.5 15.4 0 14.4.1 15 2.3 16.5 2.1 1.5 1.9 1.6-4.3 1.6-5.6 0-6.3-.1-4.7-1.3 1.3-1.1 1.7-2.9 1.7-9V239h-19v7.4c0 6.5.3 7.5 2.3 8.9 2.1 1.5 1.9 1.6-4.3 1.6-5.6 0-6.3-.1-4.7-1.3 1.5-1.2 1.7-3.2 1.7-17 0-13.2-.2-15.6-1.5-15.6-.8 0-1.5-.5-1.5-1 0-.6 2.5-1 5.5-1s5.5.4 5.5.9zm200.7 3.1c.2 3.2.1 3.3-.9 1.3-2.1-4.2-9.9-3.9-11 .5-.7 2.7 1.1 5.5 5.7 9.2 5 3.9 7.5 7.7 7.5 11.2 0 6.3-4.1 10.3-10.9 10.2-5.9 0-7.1-.9-7.1-5.1v-3.8l2 3.2c1.6 2.7 2.6 3.3 5.4 3.3 4.2 0 6.6-2.2 6.6-5.9 0-2.1-1.2-4-4.7-7.2-6.2-5.6-8.3-8.7-8.3-12.5 0-5.5 4.1-8.5 11-8.1 4.4.2 4.5.3 4.7 3.7zm45.1-1c.2 1.2-.1 2.7-.7 3.3-.8.8-1.1.7-1.1-.5 0-1.7-2.8-2.8-7.7-2.8H722v14.3c0 14.5.5 16.8 4 18 .8.3-1.4.6-4.9.6-6.1.1-6.3 0-4.8-1.7 1.4-1.6 1.7-4.3 1.7-16.5V224h-4.3c-2.3 0-5.3.7-6.5 1.6-2.3 1.6-2.5 1.3-1.6-2.1.5-1.9 1.3-2 14.7-1.8 13.8.1 14.2.2 14.5 2.3zm34.1-1.8c-.2 2.5-1.7 6.3-1.8 4.7-.1-2-2.1-2.9-6.7-2.9H757v13.2l5.5-.4c5.5-.5 5.5-.4 5.5 2.3 0 1.5-.4 3.1-1 3.4-.5.3-1-.1-1-.9 0-1.7-3.7-3-6.7-2.4-1.5.3-1.9 1.4-2.1 6.4-.3 7 1.1 9.4 5.6 9.4 3.2 0 4.5-.8 6-3.5 1.1-2 1.1-2 1.2.2 0 5-.6 5.3-10.7 5.3-8.6 0-9.3-.1-7.9-1.6 1.3-1.3 1.6-4.2 1.6-16.6 0-14.7 0-15-2.2-15.6-1.4-.4 1.7-.9 7.2-1.3 5.2-.3 9.8-.6 10.3-.7.4-.1.7.4.6 1zm35 13.4c6.8 7.4 12.5 13.3 12.7 13.2.1-.2 0-5.9-.3-12.6-.6-11.4-.8-12.4-2.7-13.2-1.6-.7-.7-.9 3.2-.9 4.9-.1 5.2 0 3.8 1.5-1.3 1.3-1.6 4.3-1.6 17.5 0 9-.4 15.9-.9 15.9s-6.5-6-13.3-13.3l-12.3-13.3-.3 11.6c-.3 10.7-.1 11.6 1.9 13.2 2.1 1.8 2 1.8-3.7 1.8-5.6 0-5.7-.1-3.6-1.6s2.2-2.1 2.2-17.9c0-12.8.3-16.3 1.3-15.9.6.4 6.8 6.7 13.6 14zM566 222.7c-2.4 1-3 2.5-3 8.8v5.9l6.5-6.4c3.6-3.6 6.3-7 6-7.7-.3-1 1-1.3 4.8-1.2 4.5 0 4.8.2 2.7 1-1.4.6-5.5 4-9.3 7.7l-6.7 6.7 7.7 7.8c4.3 4.4 9.6 8.8 11.8 9.8l4 1.9h-4.9c-4.8 0-5-.2-13.8-8.8l-9-8.7.4 7.4c.3 5.7.8 7.6 2.3 8.7 1.7 1.3 1.3 1.4-4.1 1.4-4.5-.1-5.5-.3-4.1-1.1 1.5-.9 1.7-2.8 1.7-16.5 0-15.1-.1-15.5-2.2-16.4-1.7-.6-.7-.9 4.2-.9 3.6.1 5.8.3 5 .6zm53.3 1.3c3.9 3.1 4.2 6.4 1.1 12.6l-2.7 5.4 5 5.7c2.7 3.2 6.5 6.6 8.4 7.5l3.4 1.7-4.6.1c-4.9 0-6.6-1.3-13.8-10.8-2.5-3.2-3.9-4.2-6.2-4.2-2.8 0-2.9.1-2.9 5.3 0 5.3 1.2 8 4 9 .8.3-1.3.6-4.8.6-5.8.1-6.2 0-4.8-1.5 1.3-1.3 1.6-4.2 1.6-16.5 0-14.6-.1-15-2.2-15.9-1.6-.6.3-.9 6.8-.9 7.7-.1 9.5.2 11.7 1.9zm34.7-1.3c-2.7 1-3 2.6-3 15.5 0 13.5.8 17.3 3.7 18.1 1 .3-1 .5-4.5.6-5.8.1-6.2 0-4.8-1.5 1.3-1.3 1.6-4.2 1.6-16.4 0-13.1-.2-15-1.7-15.9-1.4-.8-.3-1 4.2-1 3.3 0 5.3.3 4.5.6zm-320.1 52c.5 1 7.9 20.2 16.5 42.6 24.4 63.5 24.1 62.9 32.9 65.1 2.6.7 4.7 1.6 4.5 2.2-.4 1.2-28.3 1.2-29.5 0-.4-.5-.2-1.1.5-1.3 2.2-.8 1.2-4.4-5.6-22.3l-6.7-17.5h-33l-5.2 15c-6.9 19.9-6.9 24.5 0 24.5 1.8 0 2.7.4 2.4 1.2-.3 1-5.7 1.3-22.8 1.3-21.1 0-22.6-.1-26.5-2.2-7.1-3.8-14.5-10.6-31-28.4-8.8-9.6-17.7-19.2-19.8-21.4l-3.8-4 .6 23.2c.6 27.3.8 28.3 7.9 29.8 9.2 2 4.6 3-13.3 3-17.3 0-21.6-.9-13.5-2.9 2.5-.6 4-1.7 4.8-3.5.8-1.8 1.2-16.2 1.2-49.8 0-53.1.5-50.1-7.6-51.2-2.3-.3-4.4-1.2-4.7-1.9-.3-.9 3.7-1.2 17.8-1.2 13.9 0 18.1.3 17.8 1.2-.3.7-1.9 1.6-3.7 1.9-6.3 1.3-6.4 1.6-6.8 25.6l-.4 21.8 20.5-20.8c11.3-11.5 20.8-21.7 21.1-22.8.4-1.2.1-2.7-.9-3.8-.9-1-1.6-2.1-1.6-2.4 0-1.1 28.8-.8 29.5.3.7 1.1-.3 1.6-5.6 2.4-2 .4-5.5 1.9-7.7 3.4-5 3.3-43.2 40.6-43.2 42.1 0 1.8 49.2 50.6 54.4 53.9 9.4 6.1 14.6 5.3 18.9-2.7 1.3-2.5 10.2-26 19.7-52.1s17.7-48.1 18.3-48.8c1.3-1.7 2.5-1.5 3.6.5zM441.1 305c16 17.3 34.8 37.7 41.7 45.2 6.9 7.6 12.7 13.8 12.9 13.8.5 0-.5-51.4-1.3-68.8-.7-14.7-1.6-16.3-9-17.1-2.7-.3-4.9-1.1-4.9-1.6 0-.6 6.4-1.1 16.8-1.3 14.4-.2 16.7 0 16.7 1.3 0 1-1 1.5-2.8 1.5-1.6 0-3.7.6-4.8 1.4-1.8 1.4-1.9 3.4-2.4 53.9-.3 28.9-.8 52.8-1.2 53.2-.3.4-1.5.2-2.5-.4-4-2.1-42.4-42.4-81.2-85.1l-3.2-3.5.7 29c.3 15.9.9 34.1 1.3 40.3.9 13 1.8 14.7 9.1 16 2.5.4 4.4 1.2 4.2 1.7-.3 1.4-34.2 1.3-34.3 0 0-.6 1.7-1.4 3.9-1.8 2.2-.4 4.6-1.5 5.4-2.4 1-1.3 1.4-11.7 1.6-52.2.1-27.8.4-51.6.7-52.9.3-1.3 1.2-2.2 1.9-2 .8.2 14.6 14.5 30.7 31.8zm139.8-30.3c.5 1 8.4 21.4 17.6 45.3 23.4 61 24.2 62.5 35 62.5 4.3 0 5.9-.5 8.1-2.5 3.6-3.4 3.8-3.9 23.2-57 9.4-25.6 17.4-47.3 17.7-48.3 1-2.5 3-2.1 4.4 1 .7 1.5 6 15.1 11.8 30.2 27.6 72.4 28.4 74.2 37.4 76.4 8.4 2.2 5 3.2-9.9 3-13-.1-17.9-.8-14.4-2 2.1-.8 1.4-3.2-5.7-21.8l-6.8-18-16.6-.3-16.6-.2-5.6 17.1c-3.1 9.4-5.5 18-5.3 19.2.3 2 1.5 2.7 7.6 4.3.7.2 1.1.8.8 1.2-.6 1-56.1 1-57.2 0-.4-.4-.2-1.4.5-2.1.8-1.1-.5-5.7-6.1-20.6l-7.2-19.1-16.5.2-16.6.3-5.2 15c-6.9 19.9-6.9 24.5 0 24.5 1.8 0 2.7.4 2.5 1.2-.6 1.8-32 1.8-32.5 0-.3-.8.6-1.2 2.9-1.2 4.2 0 9.3-3.1 11.1-6.7.8-1.5 9.4-24.6 19.2-51.3 18.7-51.1 19-52 20.5-52 .5 0 1.3.8 1.9 1.7zm206.8 24c19.9 21.5 59.6 64.5 61 66.3.5.5-.4-42.3-1.3-66.8-.7-18-1.3-19.3-9-20.1-2.7-.3-4.9-1.1-4.9-1.6 0-.6 6.5-1.1 16.8-1.3 13.2-.2 16.8 0 16.5 1-.3.7-1.9 1.6-3.7 1.9-6.9 1.4-6.6-1.6-6.9 55.7-.2 32.7-.7 52.1-1.3 52.7-1.5 1.5-44.1-42.2-79.6-82-3.4-3.8-6.4-6.7-6.6-6.4-.8.8 1.4 71.5 2.4 76.6 1.2 6.2 2.5 7.4 8.4 8.1 2.8.3 4.4.9 4.2 1.6-.5 1.4-34.3 1.6-34 .1 0-.6 2-1.4 4.2-1.8 2.6-.5 4.6-1.6 5.3-3 1-1.7 1.4-14.6 1.6-53.2.1-28.1.4-51.6.7-52.3.2-.6.8-1.2 1.3-1.2s11.7 11.6 24.9 25.7zM370.3 408.1c4.5 2.3 11.8 6.6 16.2 9.5 8.9 5.9 27 21.3 26.1 22.2-.9.8-16-7-24.1-12.4-11.4-7.6-29.7-23.4-27.2-23.4.4 0 4.4 1.9 9 4.1zm310.2 3.5c-9.9 9-20.7 16.6-32.7 22.9-15 7.9-15.2 7.5-2.1-4 4.7-4.2 11.8-9.7 15.7-12.3 8.3-5.5 24.9-14.3 25.6-13.5.3.3-2.6 3.4-6.5 6.9zM537.2 419h5.8v46h64v36h-64l-.2 67.9-.3 67.9-6-4.5c-6.4-4.9-19.3-11.4-26.2-13.2l-4.3-1.2V501h-64v-36h64v-22.8c0-12.6.3-23.2.8-23.7.4-.4 6.1-.5 12.6-.1 6.6.3 14.5.6 17.8.6zm-166.5 27.1c10.2 2.3 25.3 7.9 35.3 13 6.7 3.4 7.2 3.8 4.3 3.9-4.7 0-16.5-2.6-27.3-6.2-9.7-3.1-30-12.2-30-13.3 0-.8 7.7.3 17.7 2.6zm322.8-1.5c-5.9 4.7-28.2 13.1-42.8 16.3-15.6 3.4-16.8 2.7-5.2-3 11.9-5.8 27.8-11.2 39.5-13.2 10.9-1.9 10.9-1.9 8.5-.1zm-290.8 37.5c11.2 1.6 11.8 2.4 3.2 4-9.7 1.8-40 1.8-49.7 0-4-.7-7.1-1.6-6.7-1.9 2.7-2.7 38.9-4.1 53.2-2.1zm285.4 0c11.8 1.6 12.6 2.4 3.8 4-14.8 2.7-62.2.8-54.1-2.2 7.3-2.7 35.6-3.7 50.3-1.8zm-275.5 23.8c-1 1.5-17 8.9-27.2 12.4-11.7 4.1-31.4 8.3-31.4 6.7 0-1.2 21.1-10.7 30-13.5 7.4-2.3 24-6.2 27.8-6.4.7-.1 1.1.3.8.8zm245.4 3.6c7.9 2 24.5 8.5 32 12.5 4.6 2.5 5.1 2.9 2.9 3-5.1 0-19-3.1-29.1-6.6-8.8-3.1-27.8-11.8-27.8-12.8 0-.6 15.1 2.1 22 3.9zm-250 24.1c-6.4 6.5-19.3 16.5-28.6 22-8.2 4.9-16.4 8.7-17.1 8.1-.8-.9 15-14.7 23.4-20.4 8.3-5.7 23.6-14.2 25.8-14.3.5 0-1.1 2.1-3.5 4.6zm239.9.4c5.2 2.8 13 7.6 17.4 10.8 8.5 6.1 22.1 18.2 21.3 18.9-.7.7-16.4-7.4-24.1-12.5-11.1-7.4-28.1-22.1-25.5-22.1.8-.1 5.7 2.2 10.9 4.9zm18.1 55.7c-.1.5-3.8 3.3-8.3 6.3-10.2 6.8-28.1 24.4-33.6 32.9-3.4 5.2-5.6 10.2-8.6 18.7-.2.7-2.8-1.2-5.9-4.2-4.2-4.1-6.8-5.7-11.2-7-7.9-2.3-21.1-1.4-31.9 2-4.3 1.4-8.1 2.4-8.3 2.2-.8-.9 18.1-18.7 26.3-24.8 16.4-12.4 38.4-22.1 56.6-25.2 9.1-1.5 24.9-2.1 24.9-.9zm-213.5 28.4c35.1 4 62.9 14.2 86.3 31.7l7.2 5.4 14.5-1.2c21.5-1.8 31.4-1.2 39.6 2.7 3.7 1.7 8.4 4.7 10.6 6.7 5.4 4.8 10.1 13.9 10.9 21 .4 3.1 1 5.8 1.3 6 1.4.9 9.6-6.4 9.7-8.6.1-1.3.2-3.3.3-4.5.1-2.3 4.6-8.3 6.2-8.3 1.8 0 .9 7.7-1.2 10.4-2.5 3.1-2.4 3.1 3.5.5 9.9-4.3 25.5-4.5 32.6-.3l2.5 1.5-2.4-.7-2.4-.6 2.2 2.8c2.1 2.7 2.1 2.9.5 3.3-1.9.3-5.4-3.2-5.4-5.4 0-1.4-3.1-2.5-7-2.4-2.4 0-2.3.1.7 1.4 1.7.7 3.6 2.3 4.3 3.4.9 1.9.8 2.1-1.4 2.1-1.4 0-4.1-1.4-6.2-3.2-3.5-3.1-3.7-3.1-8.2-1.9-2.6.7-6.7 2.2-9.2 3.3l-4.5 2.1 3.5.7c4.2.8 9.2 3.9 8.7 5.4-.2.6-2.1 1.2-4.2 1.4-3 .3-4.5-.3-7.5-2.6l-3.7-3-4.6 4c-3.9 3.3-4.6 4.4-4.1 6.4.8 2.9.9 2.9-5.8 0-16.6-7.4-23.4-5.8-33.1 7.3-19.8 27-43.2 37.1-86.2 37.1-17.4 0-18.3.1-23.3 2.6-4.7 2.3-15.2 12.3-15.2 14.5 0 1.8-3.6.8-7.3-2l-3.8-2.9 12-8.2c6.7-4.5 12.1-8.3 12.1-8.5 0-.2-4.6 1.5-10.2 3.7-5.7 2.2-12.6 4.9-15.4 6l-5.1 2-18.6-11.8c-10.3-6.5-18.3-12.1-17.9-12.5.4-.3 16-5.2 34.7-10.8 18.7-5.7 34.4-10.6 34.8-11 1-1-9.6-15.8-19.6-27.2-23.1-26.2-52.4-44.9-76.1-48.4-4.8-.8-6.1-2.7-2.8-4.4 2.5-1.3 14.7-4.1 22.2-5 9.6-1.2 41.2-1.3 51.5 0zm199.9 51.1c-.9 3.1-3.3 5.7-6.8 7.5l-2.9 1.5.7-2.9c.8-3.1 5.8-8.3 8.2-8.3 1.1 0 1.4.6.8 2.2zm13.6.3c0 1.7-3.4 4.1-7.2 5-3.4.9-3.6-.4-.5-3.2 3.6-3.3 7.7-4.3 7.7-1.8zm10 6c-1.3 1.6-8 2.1-8 .6 0-1.3 1.9-1.9 5.9-2 2.9-.1 3.2.1 2.1 1.4zm-19.6 8.6c3.1 2.4 2.6 3.9-1.4 3.9-1.9 0-4.2-1.1-6.2-3l-3.3-2.9 4.1-.1c2.7 0 5 .7 6.8 2.1zM457.7 770c11.3 2.8 23.4 6.4 26.8 7.9 11.8 5.4 22.9 14.3 26.5 21.2 1.9 3.6 4.1 13.5 3.2 14.3-.2.3-4.1-2.3-8.6-5.8-4.4-3.5-9.9-7.2-12.1-8.3-5.4-2.7-20.4-7.5-35-11.3-18.9-4.8-20.3-5.5-21.4-9.8-1.7-6.8-2.1-13.2-.9-13.2.6 0 10.3 2.3 21.5 5zm152.9-2.3c-.2 1.6-.8 4.9-1.1 7.5-.4 3.3-1.3 5.3-3 6.6-1.3 1-8.9 3.6-17 5.6-17.2 4.4-31.2 8.9-37.5 12.1-2.5 1.3-7.9 5-12 8.3l-7.5 6-.3-2.9c-.2-1.7.4-5.3 1.4-8.2 3.1-9.4 17.1-20.9 32.2-26.4 6-2.2 40.8-11.1 44-11.2.9-.1 1.2.8.8 2.6zM441 791.5c46.1 11.6 51.3 13.8 64.8 27.3 6.1 6 8.2 8.7 7.1 9-.9.1-6.8-1.1-13-2.7-13-3.5-79.4-19.3-88.3-21.1-9-1.8-10.6-4-10.6-14 0-5.7.4-8 1.3-8 .6 0 18.1 4.3 38.7 9.5zm204-1.5c0 7.2-.3 8.4-2.4 10.5-1.3 1.3-4.1 2.7-6.2 3-4.5.8-63.4 14.8-86.6 20.6-8.6 2.1-16.2 3.9-16.8 3.9-1.7 0 5.9-8.7 12.5-14.1 11.3-9.4 18.2-12 59.5-22.4 20.6-5.2 38.1-9.4 38.8-9.5.9 0 1.2 2.3 1.2 8zm-246.2 18c9.2 2.3 37 8.8 61.7 14.6 24.8 5.8 48.6 11.4 53 12.5 4.4 1.1 8.6 2.1 9.5 2.1 1.2 0 51.4-11.7 127.2-29.7 15-3.6 15.9-3.7 18.3-2.1 1.9 1.3 2.5 2.5 2.5 5.5 0 2.1-2.2 26.2-4.9 53.7-2.7 27.4-6.6 67.2-8.6 88.4-4.2 44-4.7 45.9-11.7 49-5.3 2.3-119.5 33-122.8 33-3.3 0-117.5-30.7-122.7-33-6.6-2.9-7.1-4.7-10.3-37.4-9.9-100.2-15-152.6-15-154.4 0-2.5 3.3-6.2 5.5-6.2.8 0 9 1.8 18.3 4z"/><path d="M360 224.7c-12.4 6.4-7.1 30.3 6.8 30.3 4.5 0 8.9-2.4 10.7-6 1.9-3.7 2-14.2.1-17.8-3.7-7-11.2-9.8-17.6-6.5zM446.2 232c-.5 1.4-1.3 4-1.7 5.7-.6 3.2-.6 3.3 2.9 3.3 2 0 3.6-.3 3.6-.8 0-.4-.9-3-1.9-5.7-1.9-4.8-2-4.9-2.9-2.5zM607.2 231.7l.3 7.8 3.7.3c2.8.2 4-.2 5.2-2 1.9-2.6 2.1-7 .5-10.1-1.6-3-2.8-3.7-6.7-3.7h-3.3l.3 7.7zM323.2 314.2c-3.3 10-6.2 19.3-6.6 20.5l-.7 2.3h14c7.8 0 14.1-.1 14.1-.3 0-.6-14.1-40.2-14.5-40.5-.2-.2-3 7.9-6.3 18zM570 315c-3.5 10.7-6.5 20.1-6.8 20.7-.3 1 2.8 1.3 13.7 1.3 7.8 0 14.1-.2 14.1-.4 0-.8-13.1-37.9-13.9-39.4-.7-1.2-2.6 3.7-7.1 17.8zM681.8 296.5c-.9 1.6-12.8 38.2-12.8 39.4 0 .7 4.3 1.1 13.5 1.1 10.9 0 13.5-.3 13.5-1.4 0-.8-2.9-9.4-6.3-19.3-3.5-9.8-6.6-18.5-6.9-19.3-.2-.7-.7-1-1-.5zM506.2 865c-13.8 3.7-23.7 9.6-33.2 19.6-33 34.8-20.9 93.2 23 111.5 44.7 18.7 93.8-11.5 96.7-59.6 1.9-31-17.5-60.1-46.7-69.9-11.5-3.9-28.8-4.6-39.8-1.6zm12.8 22.1v15.2l-5.2-.7c-13.2-1.6-13.8-1.8-13.8-3.6 0-3.7 8-17.8 12.5-21.9 2.4-2.2 4.9-4.1 5.5-4.1.6 0 1 5.5 1 15.1zm16.4-9.9c3.8 3.9 6.1 7.4 8.5 13.2 1.8 4.3 2.9 8.2 2.4 8.6-.7.7-14.2 3-17.4 3-.5 0-.9-6.4-.9-15 0-9.9.4-15 1.1-15 .6 0 3.4 2.4 6.3 5.2zm-37.8 5.1c-2 3.7-4.1 8.5-4.7 10.7-.7 2.3-1.7 3.9-2.3 3.7-8.7-3.5-12.6-5.3-12.6-5.9 0-2.1 21.5-16.6 22.7-15.4.2.2-1.2 3.3-3.1 6.9zm64.2 2.2c3.4 2.5 6.4 5.1 6.8 5.6.5.9-12.3 7.6-13 6.8-.1-.2-1.5-3.4-2.9-7.1-1.4-3.6-3.5-8.1-4.7-10-1.1-1.8-2-3.6-2-4.1 0-1.3 9.2 3.8 15.8 8.8zm-81.3 17c9.1 3.9 8.4 2.2 7 17.7l-.8 8.8h-12.3c-9.7 0-12.4-.3-12.4-1.3 0-3.7 4.3-17.5 7.1-22.8 1.8-3.2 3.2-5.9 3.3-5.9.1 0 3.7 1.6 8.1 3.5zm98 3.9c2.9 6 6.4 17.8 6.5 21.8 0 .5-5.6.8-12.4.8h-12.3l-.6-6.8c-.3-3.7-.9-8.8-1.3-11.5-.7-4.6-.6-4.7 2.4-5.8 1.7-.6 5-2.1 7.4-3.3 2.4-1.3 4.8-2.4 5.5-2.5.7 0 2.8 3.2 4.8 7.3zm-66.2 4.1 6.7.7V928H494.7l.7-8c.3-4.4 1.1-9.1 1.6-10.4.8-2.2 1.2-2.3 4.7-1.6 2.1.5 6.8 1.2 10.6 1.5zm38.1 1.7c.3 1.7.9 6.2 1.3 10l.6 6.8H528v-17.8l6.8-.9c3.7-.6 8.6-1.1 10.8-1.2 3.9-.1 4.2.1 4.8 3.1zm-63.3 31.3c.3 3.3 1 8.5 1.4 11.6l.7 5.5-7.1 2.8c-3.9 1.5-7.3 3.2-7.7 3.7-1.1 1.9-2.3.7-5.8-6.5-3.6-7.3-7.2-20.8-6-22.7.3-.6 5.4-.8 12.2-.7l11.7.3.6 6zm31.9 2.9v9.3l-8.2.7c-4.6.3-9.5.9-10.9 1.2-2.3.5-2.7.2-3.3-2.8-.4-1.8-.9-6.6-1.3-10.6l-.6-7.2H519v9.4zm33-6.4c0 5.1-2.2 18-3.1 18-1.2 0-16.1-2-18.6-2.6-2.2-.4-2.3-.9-2.3-9.4v-9h24v3zm32.4-2.2c1.5 2.5-4.4 21-8.9 27.9l-1.5 2.2-4.2-2.3c-2.4-1.3-6-2.9-8-3.6-2.1-.6-3.8-1.6-3.8-2.1 0-1.9 2.2-20.4 2.6-21.7.4-1.4 22.9-1.8 23.8-.4zM519 978.1v15.1l-3.2-2c-4.7-2.9-10.4-10.7-13.5-18.5-1.4-3.7-2.4-6.9-2.1-7.2.9-.9 9-2.3 14.1-2.4l4.7-.1v15.1zm25.8-13.5c2.8.8 2.5 2.9-1.9 11.7-3.6 7.4-7.8 12.7-11.8 15l-3.1 1.8v-30.4l7.3.6c3.9.4 8.2 1 9.5 1.3zm-51.4 8.1c.9 2.7 3 7.2 4.6 10.2 1.7 3 2.8 5.6 2.6 5.9-.9.9-13-6.4-17.9-10.7l-5-4.5 5.9-2.8c3.2-1.5 6.4-2.8 7.1-2.8.6 0 1.9 2.1 2.7 4.7zm69.9-2 6 2.7-5.2 4.7c-4.9 4.4-15.6 10.9-17.9 10.9-.6 0 .5-2.5 2.3-5.6 1.9-3.1 4.2-7.8 5-10.5.9-2.7 2.1-4.9 2.7-4.9.6 0 3.8 1.2 7.1 2.7z"/></svg>